<svg width="32" height="32" viewBox="0 0 32 32" fill="none" xmlns="http://www.w3.org/2000/svg">
<rect width="32" height="32" rx="11" fill="#4CBA95"/>
<path d="M12.0645 20.6933C12.3392 20.8877 12.6675 20.9923 13.0041 20.9925C13.3203 20.9924 13.6297 20.9001 13.8943 20.727C14.1589 20.5538 14.3673 20.3073 14.4941 20.0175L15.2631 17.6775C15.4507 17.1146 15.7668 16.603 16.1863 16.1834C16.6058 15.7637 17.1172 15.4474 17.6801 15.2595L19.9181 14.5325C20.2358 14.4212 20.5107 14.2131 20.7041 13.9375C20.8528 13.7281 20.9496 13.4864 20.9865 13.2322C21.0234 12.9781 20.9995 12.7188 20.9166 12.4758C20.8337 12.2327 20.6942 12.0128 20.5096 11.8342C20.3251 11.6556 20.1007 11.5234 19.8551 11.4485L17.6401 10.7285C17.0769 10.5418 16.565 10.2264 16.1449 9.80738C15.7249 9.38836 15.4082 8.87722 15.2201 8.31452L14.4931 6.07752C14.3812 5.76063 14.1736 5.48633 13.8991 5.29252C13.6228 5.10202 13.2952 5 12.9596 5C12.624 5 12.2963 5.10202 12.0201 5.29252C11.7411 5.48959 11.5311 5.76948 11.4201 6.09252L10.6831 8.35752C10.4954 8.9055 10.1855 9.40358 9.77674 9.81403C9.36803 10.2245 8.87126 10.5365 8.32408 10.7265L6.08408 11.4535C5.76534 11.5662 5.48964 11.7754 5.29535 12.0521C5.10106 12.3287 4.99783 12.6591 5.00003 12.9971C5.00223 13.3352 5.10975 13.6642 5.30762 13.9383C5.5055 14.2124 5.7839 14.418 6.10408 14.5265L8.32008 15.2455C8.885 15.4345 9.39844 15.7518 9.82008 16.1725C9.93304 16.2856 10.0386 16.4059 10.1361 16.5325C10.4019 16.875 10.6069 17.2606 10.7421 17.6725L11.4701 19.9065C11.5821 20.2239 11.7898 20.4988 12.0645 20.6933ZM21.8082 26.7737C22.0117 26.917 22.2548 26.9935 22.5038 26.9925C22.7512 26.9936 22.9929 26.9182 23.1958 26.7765C23.4041 26.6287 23.5602 26.4186 23.6418 26.1765L24.0138 25.0335C24.0924 24.7962 24.2253 24.5805 24.4018 24.4035C24.5784 24.2264 24.7937 24.0929 25.0308 24.0135L26.1968 23.6355C26.4323 23.5519 26.6363 23.3975 26.7808 23.1935C26.9257 22.9902 27.0036 22.7467 27.0036 22.497C27.0036 22.2473 26.9257 22.0039 26.7808 21.8005C26.6271 21.5883 26.4095 21.4309 26.1598 21.3515L25.0158 20.9805C24.7785 20.9019 24.5627 20.769 24.3857 20.5925C24.2086 20.4159 24.0751 20.2006 23.9958 19.9635L23.6168 18.8005C23.535 18.5628 23.3807 18.3568 23.1756 18.2115C22.9705 18.0662 22.7249 17.9889 22.4735 17.9907C22.2221 17.9925 21.9777 18.0731 21.7746 18.2213C21.5715 18.3695 21.4201 18.5777 21.3418 18.8165L20.9678 19.9625C20.8912 20.1968 20.7618 20.4103 20.5897 20.5866C20.4175 20.763 20.2071 20.8974 19.9748 20.9795L18.8088 21.3575C18.5732 21.4412 18.3692 21.5956 18.2248 21.7995C18.0798 22.0029 18.0019 22.2464 18.0019 22.496C18.0019 22.7457 18.0798 22.9892 18.2248 23.1925C18.3734 23.3992 18.5833 23.5539 18.8248 23.6345L19.9688 24.0065C20.2071 24.0854 20.4235 24.219 20.6008 24.3967C20.7782 24.5744 20.9114 24.7911 20.9898 25.0295L21.3678 26.1925C21.4507 26.4273 21.6047 26.6303 21.8082 26.7737Z" fill="#FFF700"/>
</svg>
